<svg id="icon-logo" xmlns="http://www.w3.org/2000/svg" viewBox="0 0 53 43">
  <title>icon-logo</title>
  <g id="Group_5" data-name="Group 5">
    <g id="Group_3" data-name="Group 3">
      <g id="Group_1" data-name="Group 1">
        <path id="Path_1" data-name="Path 1" d="M52.75,21.3l0,.17a25.09,25.09,0,0,1-7,14.75,21.62,21.62,0,0,1-15.58,6.37c-8.22,0-13.09-3.37-15.73-6.2a19.07,19.07,0,0,1-5-12.89C9.4,15,15.08,9.09,23.22,9.09a10.89,10.89,0,0,1,8.63,3.7A10.63,10.63,0,0,1,34,21.3H28.46V20.18a5.09,5.09,0,0,0-5.24-5.39c-6,0-8.12,4.5-8.12,8.71,0,5,3.17,13.39,15.05,13.39,7.11,0,15.33-4.88,16.86-15.6Z" style="fill: #FFFFFF"/>
      </g>
      <g id="Group_2" data-name="Group 2">
        <path id="Path_2" data-name="Path 2" d="M0,21.3l0-.18A25.09,25.09,0,0,1,7,6.37,21.62,21.62,0,0,1,22.6,0c8.22,0,13.09,3.37,15.73,6.2a19.07,19.07,0,0,1,5,12.89c0,8.49-5.68,14.41-13.82,14.41a10.89,10.89,0,0,1-8.63-3.7,10.62,10.62,0,0,1-2.16-8.5h5.55v1.11a5.09,5.09,0,0,0,5.24,5.39c6,0,8.12-4.5,8.12-8.71,0-5-3.17-13.39-15-13.39-7.11,0-15.33,4.89-16.86,15.6Z" style="fill: #FFFFFF"/>
      </g>
    </g>
  </g>
</svg>
