<svg id="icon-logo" xmlns="http://www.w3.org/2000/svg" viewBox="0 0 180 42.59">
  <title>icon-logo</title>
  <g id="Group_5" data-name="Group 5">
    <g id="Group_3" data-name="Group 3">
      <g id="Group_1" data-name="Group 1">
        <path id="Path_1" data-name="Path 1" d="M52.75,21.3l0,.17a25.09,25.09,0,0,1-7,14.75,21.62,21.62,0,0,1-15.58,6.37c-8.22,0-13.09-3.37-15.73-6.2a19.07,19.07,0,0,1-5-12.89C9.4,15,15.08,9.09,23.22,9.09a10.89,10.89,0,0,1,8.63,3.7A10.63,10.63,0,0,1,34,21.3H28.46V20.18a5.09,5.09,0,0,0-5.24-5.39c-6,0-8.12,4.5-8.12,8.71,0,5,3.17,13.39,15.05,13.39,7.11,0,15.33-4.88,16.86-15.6Z" style="fill: #FFFFFF"/>
      </g>
      <g id="Group_2" data-name="Group 2">
        <path id="Path_2" data-name="Path 2" d="M0,21.3l0-.18A25.09,25.09,0,0,1,7,6.37,21.62,21.62,0,0,1,22.6,0c8.22,0,13.09,3.37,15.73,6.2a19.07,19.07,0,0,1,5,12.89c0,8.49-5.68,14.41-13.82,14.41a10.89,10.89,0,0,1-8.63-3.7,10.62,10.62,0,0,1-2.16-8.5h5.55v1.11a5.09,5.09,0,0,0,5.24,5.39c6,0,8.12-4.5,8.12-8.71,0-5-3.17-13.39-15-13.39-7.11,0-15.33,4.89-16.86,15.6Z" style="fill: #FFFFFF"/>
      </g>
    </g>
    <g id="Group_4" data-name="Group 4">
      <rect id="Rectangle_1" data-name="Rectangle 1" x="60.73" y="11.42" width="4.58" height="19.86" style="fill: #FFFFFF"/>
      <rect id="Rectangle_2" data-name="Rectangle 2" x="154.27" y="11.42" width="4.58" height="19.86" style="fill: #FFFFFF"/>
      <path id="Path_3" data-name="Path 3" d="M122.87,31.6A10.26,10.26,0,1,0,112.6,21.34,10.26,10.26,0,0,0,122.87,31.6Zm0-4.56a5.7,5.7,0,1,1,5.71-5.7,5.7,5.7,0,0,1-5.71,5.7h0Z" style="fill: #FFFFFF"/>
      <path id="Path_4" data-name="Path 4" d="M83.11,11.42v13l-9.86-13H68.68V31.27h4.57v-13l9.86,13h4.58V11.42Z" style="fill: #FFFFFF"/>
      <path id="Path_5" data-name="Path 5" d="M105.49,11.42v13l-9.85-13H91.06V31.27h4.58v-13l9.85,13h4.58V11.42Z" style="fill: #FFFFFF"/>
      <path id="Path_6" data-name="Path 6" d="M147.55,11.42l-5.13,12.92L137.3,11.42h-5l8.38,19.85h3.52l8.38-19.85Z" style="fill: #FFFFFF"/>
      <path id="Path_7" data-name="Path 7" d="M175.11,31.27H180l-7.3-19.85h-4.87l-7.3,19.85h4.89l1.25-3.58h7.19Zm-7.23-7.06,2.39-6.85,2.38,6.85Z" style="fill: #FFFFFF"/>
    </g>
  </g>
</svg>
